#!OML:ASF Y:\EmotionMaleHayes\Project 1\Capture day 1\Session 1\Male1.ASF
:FULLY-SPECIFIED
:DEGREES
433
root 45.9661 17.1808 -1.30087 800.014 86.1367 802.424
lowerback 6.30508 2.65375 -6.91636
upperback 2.59705 3.19281 -1.57527
thorax -1.12102 1.60817 2.00644
lowerneck -20.2375 -0.696768 1.27447
upperneck 22.213 -1.63853 1.57326
head 10.4802 -0.378592 0.120127
rclavicle -3.09607e-014 1.03368e-014
rhumerus -41.5877 15.4553 -92.8196
rradius 51.312
rwrist -6.06305
rhand -13.0559 -28.4289
rfingers 7.12502
rthumb 13.0393 -58.0014
lclavicle -3.09607e-014 1.03368e-014
lhumerus -39.4305 -15.6972 89.1758
lradius 40.8986
lwrist 6.53416
lhand -20.1746 -21.6496
lfingers 7.12502
lthumb 6.17126 8.24047
rfemur 5.20938 -0.971001 10.6273
rtibia 8.23951
rfoot -15.0496 -2.7084
rtoes -4.63731
lfemur 11.2256 -0.309223 -21.0479
ltibia 0.820185
lfoot -12.1814 9.79009
ltoes -1.69679
434
root 45.9734 17.1786 -1.29736 800.617 85.7667 803.084
lowerback 6.2785 2.63503 -7.34161
upperback 2.67139 3.15406 -1.64798
thorax -1.04158 1.58546 2.17334
lowerneck -20.3535 -0.56759 1.56191
upperneck 22.2816 -1.44402 1.14474
head 10.52 -0.317878 -0.0526
rclavicle -2.09718e-014 6.75868e-015
rhumerus -41.63 15.3431 -92.6572
rradius 50.9085
rwrist -6.11666
rhand -12.8823 -28.794
rfingers 7.12502
rthumb 13.2067 -58.3557
lclavicle -2.09718e-014 6.75868e-015
lhumerus -39.2143 -15.8631 89.2627
lradius 41.2814
lwrist 6.69826
lhand -20.1822 -21.6451
lfingers 7.12502
lthumb 6.16396 8.24525
rfemur 5.31303 -0.92767 10.1664
rtibia 8.32243
rfoot -15.1608 -2.52969
rtoes -2.36522
lfemur 11.3192 -0.340261 -21.5199
ltibia 0.799587
lfoot -12.1058 9.86007
ltoes -2.36976
435
root 45.9786 17.1772 -1.29574 801.223 85.5909 803.745
lowerback 6.29059 2.60707 -7.51679
upperback 2.70667 3.10992 -1.68916
thorax -1.01324 1.56226 2.23184
lowerneck -20.2038 -0.541232 1.4405
upperneck 22.0858 -1.40354 1.29865
head 10.423 -0.295034 0.0287633
rclavicle -2.61402e-014 1.47101e-014
rhumerus -41.699 15.1973 -92.5023
rradius 50.4959
rwrist -6.04744
rhand -12.3834 -29.3818
rfingers 7.12502
rthumb 13.6876 -58.9117
lclavicle -2.61402e-014 1.47101e-014
lhumerus -39.1173 -16.1113 89.3892
lradius 41.7712
lwrist 6.95406
lhand -20.1394 -21.5809
lfingers 7.12502
lthumb 6.20526 8.30823
rfemur 5.37607 -1.14308 9.90553
rtibia 8.27723
rfoot -14.7352 -2.86567
rtoes -3.86895
lfemur 11.4156 -0.337251 -21.7445
ltibia 0.770025
lfoot -12.0773 9.75687
ltoes -2.31818
436
root 45.9783 17.1759 -1.29568 802.039 85.5423 804.598
lowerback 6.35032 2.567 -7.54245
upperback 2.72511 3.05154 -1.69783
thorax -1.02237 1.53344 2.23976
lowerneck -20.1783 -0.477058 1.53612
upperneck 22.2023 -1.28211 1.06549
head 10.4577 -0.257947 -0.0522602
rclavicle -3.67752e-015 -2.18663e-014
rhumerus -41.7275 15.0893 -92.3677
rradius 49.9453
rwrist -6.05481
rhand -12.2024 -29.5062
rfingers 7.12502
rthumb 13.8619 -59.0243
lclavicle -3.67752e-015 -2.18663e-014
lhumerus -39.0582 -16.3006 89.5073
lradius 42.3463
lwrist 7.15759
lhand -20.001 -21.3613
lfingers 7.12502
lthumb 6.33889 8.52387
rfemur 5.42266 -1.16426 9.81732
rtibia 8.41108
rfoot -15.2002 -2.38643
rtoes -2.74118
lfemur 11.4384 -0.354414 -21.826
ltibia 0.801616
lfoot -12.1699 9.6308
ltoes -0.858827
437
root 45.9783 17.1767 -1.2896 801.402 85.3297 803.929
lowerback 6.36399 2.5863 -7.81461
upperback 2.72154 3.06103 -1.73043
thorax -1.04504 1.53843 2.35502
lowerneck -20.2372 -0.425018 1.59006
upperneck 22.2787 -1.19507 0.937567
head 10.4953 -0.228089 -0.0942437
rclavicle 6.26172e-015 -6.75868e-015
rhumerus -41.764 14.9361 -92.2284
rradius 49.4213
rwrist -5.92388
rhand -12.1207 -29.6247
rfingers 7.12502
rthumb 13.9407 -59.1373
lclavicle 6.26172e-015 -6.75868e-015
lhumerus -38.9369 -16.4913 89.6054
lradius 42.8081
lwrist 7.29106
lhand -19.761 -21.0619
lfingers 7.12502
lthumb 6.57057 8.81621
rfemur 5.32906 -1.03937 9.62474
rtibia 8.35921
rfoot -15.016 -2.84092
rtoes -4.88193
lfemur 11.3932 -0.358299 -22.0334
ltibia 0.812457
lfoot -12.2511 9.70169
ltoes 0.197705
438
root 45.9786 17.1775 -1.28671 800.952 85.294 803.432
lowerback 6.41203 2.59292 -7.81279
upperback 2.68635 3.06237 -1.75576
thorax -1.10707 1.54192 2.32452
lowerneck -20.2517 -0.381191 1.65082
upperneck 22.3009 -1.1336 0.860852
head 10.5053 -0.203952 -0.122739
rclavicle 6.5102e-015 1.82882e-014
rhumerus -41.8274 14.6318 -92.0707
rradius 49.0153
rwrist -5.73124
rhand -11.9817 -29.9299
rfingers 7.12502
rthumb 14.0746 -59.4333
lclavicle 6.5102e-015 1.82882e-014
lhumerus -38.8563 -16.7672 89.7105
lradius 43.2645
lwrist 7.39806
lhand -19.7927 -20.9714
lfingers 7.12502
lthumb 6.53989 8.90761
rfemur 5.25794 -0.966396 9.60832
rtibia 8.4902
rfoot -15.2756 -2.42892
rtoes -2.83593
lfemur 11.3694 -0.353396 -22.0629
ltibia 0.766617
lfoot -12.162 9.76279
ltoes -0.140201
439
root 45.9784 17.179 -1.28557 802.021 85.2002 804.453
lowerback 6.44087 2.55203 -7.86469
upperback 2.66424 3.00096 -1.79777
thorax -1.14012 1.51316 2.31314
lowerneck -20.1796 -0.358979 1.56886
upperneck 22.2684 -1.0963 0.949019
head 10.4813 -0.183437 -0.0718797
rclavicle 1.90336e-014 0
rhumerus -41.8312 14.3768 -91.8988
rradius 48.5982
rwrist -5.66647
rhand -11.7463 -30.279
rfingers 7.12502
rthumb 14.3015 -59.7665
lclavicle 1.90336e-014 0
lhumerus -38.8003 -17.0432 89.8405
lradius 43.7417
lwrist 7.65742
lhand -19.9956 -21.0554
lfingers 7.12502
lthumb 6.34406 8.82956
rfemur 5.19656 -1.26404 9.42586
rtibia 8.45499
rfoot -15.0881 -2.40599
rtoes -4.50684
lfemur 11.3041 -0.28432 -22.1917
ltibia 0.783757
lfoot -12.1254 9.67626
ltoes -0.447942
440
root 45.9851 17.1723 -1.27056 799.842 85.862 802.528
lowerback 6.61562 2.54347 -7.30051
upperback 2.75658 3.01101 -1.58059
thorax -1.12869 1.51592 2.21939
lowerneck -20.0558 -0.344314 1.45891
upperneck 22.1894 -1.06302 1.05135
head 10.4307 -0.166405 -0.0119593
rclavicle 2.73329e-015 1.27222e-014
rhumerus -41.8054 14.1959 -91.7409
rradius 48.1344
rwrist -5.50749
rhand -11.4413 -30.5633
rfingers 7.12502
rthumb 14.5953 -60.0298
lclavicle 2.73329e-015 1.27222e-014
lhumerus -38.6856 -17.2681 89.9415
lradius 44.1486
lwrist 7.93184
lhand -19.9581 -20.9591
lfingers 7.12502
lthumb 6.38031 8.92481
rfemur 5.5323 -0.776071 10.44
rtibia 8.43909
rfoot -15.3028 -2.64436
rtoes -2.76386
lfemur 11.6842 -0.266375 -21.2283
ltibia 0.665009
lfoot -12.1736 9.64798
ltoes -0.843999
441
root 45.9762 17.1782 -1.27145 802.374 85.1645 804.875
lowerback 6.55432 2.50558 -7.98883
upperback 2.69645 2.92407 -1.79214
thorax -1.16756 1.47523 2.39014
lowerneck -19.985 -0.330648 1.40884
upperneck 22.1787 -1.02087 1.03394
head 10.4135 -0.153807 -0.00353849
rclavicle -9.49197e-015 -2.38542e-014
rhumerus -41.8114 14.0727 -91.6427
rradius 47.6148
rwrist -5.52962
rhand -11.5153 -30.4441
rfingers 7.12502
rthumb 14.5241 -59.9157
lclavicle -9.49197e-015 -2.38542e-014
lhumerus -38.5384 -17.4106 89.997
lradius 44.5634
lwrist 8.02162
lhand -19.9299 -21.0682
lfingers 7.12502
lthumb 6.40746 8.81487
rfemur 5.19678 -1.1868 9.43262
rtibia 8.68523
rfoot -15.0364 -2.61408
rtoes -2.30779
lfemur 11.3187 -0.252145 -22.1388
ltibia 0.852089
lfoot -12.057 9.62557
ltoes -2.20619
442
root 45.969 17.1766 -1.25849 799.251 86.1046 801.798
lowerback 6.70466 2.49417 -7.1147
upperback 2.69453 2.94249 -1.51041
thorax -1.23203 1.48513 2.18932
lowerneck -20.0621 -0.344743 1.33209
upperneck 22.2782 -1.00368 0.977896
head 10.464 -0.157846 -0.00826722
rclavicle 8.69683e-015 -4.77083e-015
rhumerus -41.8609 14.0933 -91.6528
rradius 46.9969
rwrist -6.38424
rhand -12.5551 -29.5638
rfingers 7.12502
rthumb 13.522 -59.1048
lclavicle 8.69683e-015 -4.77083e-015
lhumerus -38.412 -17.5348 90.0616
lradius 45.003
lwrist 8.00561
lhand -19.9718 -21.3532
lfingers 7.12502
lthumb 6.36703 8.53114
rfemur 5.14363 -0.58523 10.8752
rtibia 8.72888
rfoot -15.3997 -3.01583
rtoes -2.93877
lfemur 11.3674 -0.309895 -20.8447
ltibia 0.837827
lfoot -12.0017 9.71847
ltoes -2.32324
